<svg id="visual" viewBox="0 0 900 600" width="900" height="600" xmlns="http://www.w3.org/2000/svg" xmlns:xlink="http://www.w3.org/1999/xlink" version="1.1"><path d="M0 157L82 163L164 211L245 301L327 181L409 157L491 151L573 175L655 187L736 265L818 175L900 109L900 0L818 0L736 0L655 0L573 0L491 0L409 0L327 0L245 0L164 0L82 0L0 0Z" fill="#4facf7"></path><path d="M0 283L82 319L164 313L245 403L327 355L409 301L491 307L573 301L655 307L736 379L818 409L900 307L900 107L818 173L736 263L655 185L573 173L491 149L409 155L327 179L245 299L164 209L82 161L0 155Z" fill="#3b81bc"></path><path d="M0 439L82 433L164 421L245 493L327 505L409 433L491 475L573 469L655 439L736 433L818 493L900 403L900 305L818 407L736 377L655 305L573 299L491 305L409 299L327 353L245 401L164 311L82 317L0 281Z" fill="#275984"></path><path d="M0 499L82 493L164 523L245 529L327 541L409 529L491 511L573 505L655 499L736 535L818 535L900 493L900 401L818 491L736 431L655 437L573 467L491 473L409 431L327 503L245 491L164 419L82 431L0 437Z" fill="#133350"></path><path d="M0 601L82 601L164 601L245 601L327 601L409 601L491 601L573 601L655 601L736 601L818 601L900 601L900 491L818 533L736 533L655 497L573 503L491 509L409 527L327 539L245 527L164 521L82 491L0 497Z" fill="#001122"></path></svg>
