<svg id="visual" viewBox="0 0 900 600" width="900" height="600" xmlns="http://www.w3.org/2000/svg" xmlns:xlink="http://www.w3.org/1999/xlink" version="1.1"><rect x="0" y="0" width="900" height="600" fill="#001220"></rect><path d="M0 493L16.7 467.3C33.3 441.7 66.7 390.3 100 394.7C133.3 399 166.7 459 200 473C233.3 487 266.7 455 300 445C333.3 435 366.7 447 400 458.8C433.3 470.7 466.7 482.3 500 470.8C533.3 459.3 566.7 424.7 600 419.7C633.3 414.7 666.7 439.3 700 436.7C733.3 434 766.7 404 800 392C833.3 380 866.7 386 883.3 389L900 392L900 601L883.3 601C866.7 601 833.3 601 800 601C766.7 601 733.3 601 700 601C666.7 601 633.3 601 600 601C566.7 601 533.3 601 500 601C466.7 601 433.3 601 400 601C366.7 601 333.3 601 300 601C266.7 601 233.3 601 200 601C166.7 601 133.3 601 100 601C66.7 601 33.3 601 16.7 601L0 601Z" fill="#0066ff"></path><path d="M0 400L16.7 424.2C33.3 448.3 66.7 496.7 100 492C133.3 487.3 166.7 429.7 200 410.3C233.3 391 266.7 410 300 438C333.3 466 366.7 503 400 500.3C433.3 497.7 466.7 455.3 500 446.8C533.3 438.3 566.7 463.7 600 475.2C633.3 486.7 666.7 484.3 700 467C733.3 449.7 766.7 417.3 800 416.3C833.3 415.3 866.7 445.7 883.3 460.8L900 476L900 601L883.3 601C866.7 601 833.3 601 800 601C766.7 601 733.3 601 700 601C666.7 601 633.3 601 600 601C566.7 601 533.3 601 500 601C466.7 601 433.3 601 400 601C366.7 601 333.3 601 300 601C266.7 601 233.3 601 200 601C166.7 601 133.3 601 100 601C66.7 601 33.3 601 16.7 601L0 601Z" fill="#1597ff"></path><path d="M0 547L16.7 542.5C33.3 538 66.7 529 100 513.7C133.3 498.3 166.7 476.7 200 482.8C233.3 489 266.7 523 300 531.3C333.3 539.7 366.7 522.3 400 515.5C433.3 508.7 466.7 512.3 500 520.7C533.3 529 566.7 542 600 535.2C633.3 528.3 666.7 501.7 700 492.7C733.3 483.7 766.7 492.3 800 503.3C833.3 514.3 866.7 527.7 883.3 534.3L900 541L900 601L883.3 601C866.7 601 833.3 601 800 601C766.7 601 733.3 601 700 601C666.7 601 633.3 601 600 601C566.7 601 533.3 601 500 601C466.7 601 433.3 601 400 601C366.7 601 333.3 601 300 601C266.7 601 233.3 601 200 601C166.7 601 133.3 601 100 601C66.7 601 33.3 601 16.7 601L0 601Z" fill="#74c0ff"></path></svg>